<svg width="512" height="512" viewBox="0 0 512 512" fill="none" xmlns="http://www.w3.org/2000/svg">
  <!-- Car body -->
  <path d="M93.333 352H53.333C39.467 352 28.267 340.8 28.267 326.933V298.667C28.267 284.8 39.467 273.6 53.333 273.6H93.333V352Z" fill="#FFB84D"/>
  <path d="M418.667 352H458.667C472.533 352 483.733 340.8 483.733 326.933V298.667C483.733 284.8 472.533 273.6 458.667 273.6H418.667V352Z" fill="#FFB84D"/>
  
  <!-- Main car structure -->
  <rect x="93" y="224" width="326" height="128" rx="20" fill="#4A4A4A"/>
  <path d="M140 224C140 213.072 140 213.072 140 202.144C140 184.32 151.2 168 168 160L200 144H312L344 160C360.8 168 372 184.32 372 202.144C372 213.072 372 213.072 372 224H140Z" fill="#6B6B6B"/>
  
  <!-- Windows -->
  <rect x="156" y="180" width="80" height="44" rx="8" fill="#B3D9FF" opacity="0.8"/>
  <rect x="276" y="180" width="80" height="44" rx="8" fill="#B3D9FF" opacity="0.8"/>
  
  <!-- Wheels -->
  <circle cx="152" cy="352" r="40" fill="#2D2D2D"/>
  <circle cx="152" cy="352" r="24" fill="#888"/>
  <circle cx="360" cy="352" r="40" fill="#2D2D2D"/>
  <circle cx="360" cy="352" r="24" fill="#888"/>
  
  <!-- Headlights -->
  <circle cx="424" cy="288" r="8" fill="#FFE57F"/>
  <circle cx="88" cy="288" r="8" fill="#FFE57F"/>
  
  <!-- Chat bot head floating above -->
  <g transform="translate(180, 10)">
    <!-- Head circle -->
    <circle cx="76" cy="76" r="70" fill="white" stroke="#4A4A4A" stroke-width="4"/>
    
    <!-- Headset -->
    <path d="M20 60C20 35 40 15 76 15C112 15 132 35 132 60" stroke="#4A4A4A" stroke-width="8" stroke-linecap="round" fill="none"/>
    <rect x="12" y="54" width="16" height="24" rx="8" fill="#4A4A4A"/>
    <rect x="124" y="54" width="16" height="24" rx="8" fill="#4A4A4A"/>
    
    <!-- Face - eyes -->
    <circle cx="56" cy="70" r="8" fill="#4A4A4A"/>
    <circle cx="96" cy="70" r="8" fill="#4A4A4A"/>
    
    <!-- Face - smile -->
    <path d="M56 92C56 92 66 102 76 102C86 102 96 92 96 92" stroke="#4A4A4A" stroke-width="4" stroke-linecap="round" fill="none"/>
    
    <!-- Microphone -->
    <rect x="108" y="92" width="24" height="32" rx="12" fill="#4A4A4A"/>
    <path d="M114 124L114 132L126 132L126 124" stroke="#4A4A4A" stroke-width="4" stroke-linecap="round"/>
    <line x1="120" y1="132" x2="120" y2="140" stroke="#4A4A4A" stroke-width="4" stroke-linecap="round"/>
  </g>
  
  <!-- Chat dots (thinking animation) -->
  <g transform="translate(80, 80)">
    <circle cx="8" cy="0" r="6" fill="#FFB84D"/>
    <circle cx="24" cy="0" r="6" fill="#FFB84D"/>
    <circle cx="40" cy="0" r="6" fill="#FFB84D"/>
  </g>
</svg>
