<svg width="926" height="480" viewBox="0 0 926 480" fill="none" xmlns="http://www.w3.org/2000/svg">
<g clip-path="url(#clip0_2_2)">
<path d="M309.121 349.154C256.905 386.112 184.149 381.243 137.39 334.483C85.1474 282.245 85.1474 197.55 137.39 145.308C183.553 99.1447 255.055 93.806 307.113 129.239C306.741 91.5662 306.372 56.2821 306.022 25.7317C227.288 -0.6635 136.903 17.4783 74.194 80.1876C-14.0647 168.446 -14.0647 311.546 74.194 399.814C137.96 463.575 230.343 481.265 309.997 452.894C309.734 421.396 309.441 386.139 309.121 349.154Z" fill="white"/>
<path d="M405.915 381.719L406.296 217.611L198.65 215.029L263.884 283.02L336.469 283.936L337.394 444.306L405.915 381.719Z" fill="#EDA753"/>
<path d="M498.945 282.649L489.351 319.003H508.536L498.945 282.649ZM522.461 372.056L517.381 352.994H480.317L475.426 372.056H431.213L476.368 236.473H523.399L568.554 372.056H522.461Z" fill="white"/>
<path d="M647.92 272.432C646.04 270.863 643.217 269.877 638.514 269.877H627.788V293.458H638.514C645.851 293.458 652.623 290.512 652.623 281.667C652.623 275.772 649.805 273.808 647.92 272.432ZM654.131 372.056L633.434 326.862H627.977V372.056H585.461V236.473H641.902C657.892 236.473 670.121 239.423 679.527 246.3C688.933 253.173 695.517 264.963 695.517 279.704C695.517 307.212 679.527 317.039 673.886 320.572L703.042 372.056H654.131Z" fill="white"/>
<path d="M719.012 236.47H761.529V372.058H719.012V236.47Z" fill="white"/>
<path d="M869.696 372.058L830.187 296.406C830.187 296.406 831.125 311.142 831.125 320.969V372.058H789.739V236.471H835.828L873.457 312.123C873.457 312.123 872.519 297.387 872.519 287.565V236.471H913.909V372.058H869.696Z" fill="white"/>
<path d="M770.224 192.669H728.001L719.235 220.773H761.458L770.224 192.669Z" fill="white"/>
<path d="M448.962 432.914H438.24L454.577 385.589H467.471L483.786 432.914H473.064L461.209 396.404H460.839L448.962 432.914ZM448.292 414.312H473.618V422.123H448.292V414.312Z" fill="white"/>
<path d="M518.714 385.589H528.719V416.323C528.719 419.774 527.895 422.793 526.247 425.381C524.614 427.969 522.326 429.987 519.384 431.435C516.441 432.868 513.014 433.584 509.101 433.584C505.172 433.584 501.737 432.868 498.794 431.435C495.852 429.987 493.564 427.969 491.931 425.381C490.298 422.793 489.482 419.774 489.482 416.323V385.589H499.488V415.468C499.488 417.27 499.881 418.872 500.666 420.274C501.467 421.676 502.592 422.778 504.04 423.579C505.488 424.38 507.175 424.78 509.101 424.78C511.042 424.78 512.729 424.38 514.161 423.579C515.609 422.778 516.726 421.676 517.512 420.274C518.313 418.872 518.714 417.27 518.714 415.468V385.589Z" fill="white"/>
<path d="M535.149 393.839V385.589H574.017V393.839H559.528V432.914H549.638V393.839H535.149Z" fill="white"/>
<path d="M621.747 409.252C621.747 414.413 620.768 418.803 618.812 422.423C616.871 426.044 614.221 428.809 610.863 430.719C607.52 432.614 603.761 433.561 599.586 433.561C595.38 433.561 591.606 432.606 588.263 430.696C584.92 428.786 582.278 426.02 580.337 422.4C578.396 418.78 577.425 414.397 577.425 409.252C577.425 404.091 578.396 399.7 580.337 396.08C582.278 392.46 584.92 389.702 588.263 387.807C591.606 385.897 595.38 384.942 599.586 384.942C603.761 384.942 607.52 385.897 610.863 387.807C614.221 389.702 616.871 392.46 618.812 396.08C620.768 399.7 621.747 404.091 621.747 409.252ZM611.602 409.252C611.602 405.909 611.102 403.09 610.1 400.794C609.114 398.499 607.72 396.758 605.918 395.572C604.115 394.386 602.005 393.792 599.586 393.792C597.167 393.792 595.057 394.386 593.254 395.572C591.452 396.758 590.05 398.499 589.049 400.794C588.063 403.09 587.57 405.909 587.57 409.252C587.57 412.595 588.063 415.414 589.049 417.709C590.05 420.005 591.452 421.745 593.254 422.932C595.057 424.118 597.167 424.711 599.586 424.711C602.005 424.711 604.115 424.118 605.918 422.932C607.72 421.745 609.114 420.005 610.1 417.709C611.102 415.414 611.602 412.595 611.602 409.252Z" fill="white"/>
<path d="M629.159 385.589H641.498L654.531 417.386H655.086L668.119 385.589H680.459V432.914H670.753V402.111H670.36L658.113 432.683H651.504L639.257 401.996H638.864V432.914H629.159V385.589Z" fill="white"/>
<path d="M732.192 409.252C732.192 414.413 731.213 418.803 729.257 422.423C727.316 426.044 724.666 428.809 721.308 430.719C717.965 432.614 714.206 433.561 710.031 433.561C705.825 433.561 702.051 432.606 698.708 430.696C695.365 428.786 692.723 426.02 690.782 422.4C688.841 418.78 687.87 414.397 687.87 409.252C687.87 404.091 688.841 399.7 690.782 396.08C692.723 392.46 695.365 389.702 698.708 387.807C702.051 385.897 705.825 384.942 710.031 384.942C714.206 384.942 717.965 385.897 721.308 387.807C724.666 389.702 727.316 392.46 729.257 396.08C731.213 399.7 732.192 404.091 732.192 409.252ZM722.047 409.252C722.047 405.909 721.547 403.09 720.545 400.794C719.559 398.499 718.165 396.758 716.363 395.572C714.56 394.386 712.45 393.792 710.031 393.792C707.612 393.792 705.502 394.386 703.699 395.572C701.897 396.758 700.495 398.499 699.494 400.794C698.508 403.09 698.015 405.909 698.015 409.252C698.015 412.595 698.508 415.414 699.494 417.709C700.495 420.005 701.897 421.745 703.699 422.932C705.502 424.118 707.612 424.711 710.031 424.711C712.45 424.711 714.56 424.118 716.363 422.932C718.165 421.745 719.559 420.005 720.545 417.709C721.547 415.414 722.047 412.595 722.047 409.252Z" fill="white"/>
<path d="M735.641 393.839V385.589H774.508V393.839H760.02V432.914H750.129V393.839H735.641Z" fill="white"/>
<path d="M822.238 409.252C822.238 414.413 821.26 418.803 819.303 422.423C817.362 426.044 814.713 428.809 811.354 430.719C808.011 432.614 804.252 433.561 800.077 433.561C795.872 433.561 792.097 432.606 788.754 430.696C785.411 428.786 782.769 426.02 780.828 422.4C778.887 418.78 777.917 414.397 777.917 409.252C777.917 404.091 778.887 399.7 780.828 396.08C782.769 392.46 785.411 389.702 788.754 387.807C792.097 385.897 795.872 384.942 800.077 384.942C804.252 384.942 808.011 385.897 811.354 387.807C814.713 389.702 817.362 392.46 819.303 396.08C821.26 399.7 822.238 404.091 822.238 409.252ZM812.094 409.252C812.094 405.909 811.593 403.09 810.592 400.794C809.606 398.499 808.211 396.758 806.409 395.572C804.607 394.386 802.496 393.792 800.077 393.792C797.659 393.792 795.548 394.386 793.746 395.572C791.943 396.758 790.541 398.499 789.54 400.794C788.554 403.09 788.061 405.909 788.061 409.252C788.061 412.595 788.554 415.414 789.54 417.709C790.541 420.005 791.943 421.745 793.746 422.932C795.548 424.118 797.659 424.711 800.077 424.711C802.496 424.711 804.607 424.118 806.409 422.932C808.211 421.745 809.606 420.005 810.592 417.709C811.593 415.414 812.094 412.595 812.094 409.252Z" fill="white"/>
<path d="M829.65 432.914V385.589H848.321C851.895 385.589 854.946 386.228 857.472 387.507C860.014 388.77 861.947 390.565 863.272 392.891C864.612 395.202 865.283 397.921 865.283 401.048C865.283 404.191 864.605 406.895 863.249 409.159C861.893 411.408 859.929 413.134 857.357 414.335C854.799 415.537 851.703 416.138 848.067 416.138H835.566V408.096H846.45C848.36 408.096 849.947 407.834 851.21 407.311C852.473 406.787 853.413 406.001 854.029 404.954C854.661 403.906 854.976 402.604 854.976 401.048C854.976 399.477 854.661 398.152 854.029 397.074C853.413 395.995 852.465 395.179 851.187 394.624C849.923 394.054 848.329 393.769 846.403 393.769H839.656V432.914H829.65ZM855.207 411.378L866.969 432.914H855.924L844.416 411.378H855.207Z" fill="white"/>
<path d="M880.511 432.914H869.789L886.126 385.589H899.02L915.335 432.914H904.612L892.758 396.404H892.388L880.511 432.914ZM879.841 414.312H905.167V422.123H879.841V414.312Z" fill="white"/>
</g>
<defs>
<clipPath id="clip0_2_2">
<rect width="907.335" height="452" fill="white" transform="translate(8 14)"/>
</clipPath>
</defs>
</svg>
